<svg width="22" height="22" viewBox="0 0 22 22" fill="none" xmlns="http://www.w3.org/2000/svg">
<path d="M2.97379 5.57067C3.54891 5.1687 4.41586 5.24579 4.93225 5.67223L4.34 4.81139C3.86339 4.13166 4.03409 3.39624 4.71444 2.91902C5.39478 2.44363 7.32265 3.72173 7.32265 3.72173C6.84175 3.03527 6.93169 2.16525 7.61816 1.68375C8.30462 1.20407 9.25173 1.36988 9.73262 2.05757L16.1078 11.0636L15.2953 18.9409L8.51448 16.4679L2.59997 7.6986C2.11479 7.00785 2.28243 6.05523 2.97379 5.57067Z" fill="#EF9645"/>
<path d="M1.64885 10.5809C1.64885 10.5809 0.956263 9.5714 1.96639 8.87942C2.97529 8.18745 3.66726 9.19635 3.66726 9.19635L6.87995 13.8817C6.99069 13.6969 7.11183 13.5146 7.24705 13.3347L2.78807 6.83287C2.78807 6.83287 2.09609 5.82397 3.1056 5.132C4.1145 4.44002 4.80648 5.44892 4.80648 5.44892L9.00054 11.5653C9.15655 11.4381 9.31624 11.3102 9.48082 11.1848L4.61865 4.09312C4.61865 4.09312 3.92667 3.08422 4.93618 2.39224C5.94508 1.70027 6.63706 2.70917 6.63706 2.70917L11.4992 9.79961C11.6779 9.69009 11.8547 9.59526 12.0321 9.49492L7.48749 2.86763C7.48749 2.86763 6.79552 1.85873 7.80442 1.16676C8.81332 0.474783 9.50529 1.48368 9.50529 1.48368L14.3106 8.49153L15.0411 9.55732C12.0138 11.6339 11.7256 15.5404 13.4552 18.0629C13.8009 18.5677 14.3057 18.222 14.3057 18.222C12.2297 15.1941 12.8636 11.7917 15.8915 9.71579L14.9989 5.24824C14.9989 5.24824 14.6654 4.07109 15.842 3.73703C17.0191 3.40359 17.3532 4.58074 17.3532 4.58074L18.3841 7.64231C18.7928 8.85617 19.2278 10.0658 19.8035 11.2099C21.4291 14.4403 20.4582 18.4551 17.3929 20.5579C14.0493 22.8504 9.47837 21.9982 7.18525 18.6552L1.64885 10.5809Z" fill="#FFDC5D"/>
<path d="M7.34194 19.5784C4.89464 19.5784 2.42165 17.1054 2.42165 14.6581C2.42165 14.3198 2.17386 14.0463 1.83552 14.0463C1.49718 14.0463 1.198 14.3198 1.198 14.6581C1.198 18.3291 3.67099 20.8021 7.34194 20.8021C7.68028 20.8021 7.95377 20.5029 7.95377 20.1645C7.95377 19.8262 7.68028 19.5784 7.34194 19.5784Z" fill="#5DADEC"/>
<path d="M4.28277 20.7764C2.4473 20.7764 1.22365 19.5527 1.22365 17.7172C1.22365 17.3789 0.950164 17.1054 0.611825 17.1054C0.273486 17.1054 0 17.3789 0 17.7172C0 20.1645 1.83547 22 4.28277 22C4.62111 22 4.8946 21.7265 4.8946 21.3882C4.8946 21.0498 4.62111 20.7764 4.28277 20.7764ZM14.6838 1.19795C14.3461 1.19795 14.072 1.47205 14.072 1.80978C14.072 2.1475 14.3461 2.4216 14.6838 2.4216C17.1311 2.4216 19.5784 4.61744 19.5784 7.3162C19.5784 7.65393 19.8525 7.92803 20.1902 7.92803C20.528 7.92803 20.802 7.65393 20.802 7.3162C20.802 3.9426 18.3547 1.19795 14.6838 1.19795Z" fill="#5DADEC"/>
<path d="M17.7432 0C17.4054 0 17.1313 0.248401 17.1313 0.586128C17.1313 0.923856 17.4054 1.22365 17.7432 1.22365C19.5786 1.22365 20.7766 2.58496 20.7766 4.25708C20.7766 4.59481 21.0758 4.8689 21.4141 4.8689C21.7525 4.8689 22.0003 4.59481 22.0003 4.25708C22.0003 1.90951 20.1905 0 17.7432 0Z" fill="#5DADEC"/>
</svg>
